<svg xmlns="http://www.w3.org/2000/svg" viewBox="0 0 360 504" width="360" height="504">
  <defs>
    <linearGradient id="cardGrad" x1="0" y1="0" x2="0.35" y2="1">
      <stop offset="0%" stop-color="#7c241d"></stop>
      <stop offset="100%" stop-color="#451010"></stop>
    </linearGradient>
    <radialGradient id="medalGrad" cx="50%" cy="44%" r="62%">
      <stop offset="0%" stop-color="#8d2c23"></stop>
      <stop offset="100%" stop-color="#451010"></stop>
    </radialGradient>
    <radialGradient id="nodeGlow" cx="50%" cy="50%" r="50%">
      <stop offset="0%" stop-color="#f6e3a8" stop-opacity="0.6"></stop>
      <stop offset="100%" stop-color="#f6e3a8" stop-opacity="0"></stop>
    </radialGradient>
    <linearGradient id="goldGrad" x1="0" y1="0" x2="1" y2="1">
      <stop offset="0%" stop-color="#f6e3a8"></stop>
      <stop offset="48%" stop-color="#e8cd86"></stop>
      <stop offset="100%" stop-color="#c39f4d"></stop>
    </linearGradient>
    <radialGradient id="vign" cx="50%" cy="42%" r="72%">
      <stop offset="0%" stop-color="#000" stop-opacity="0"></stop>
      <stop offset="66%" stop-color="#000" stop-opacity="0"></stop>
      <stop offset="100%" stop-color="#000" stop-opacity="0.34"></stop>
    </radialGradient>
    <pattern id="diaper" patternUnits="userSpaceOnUse" width="22" height="22">
      <path d="M0,0 L22,22 M22,0 L0,22" fill="none" stroke="#e8cd86" stroke-width="0.6" stroke-opacity="0.10"></path>
    </pattern>
    <pattern id="fretH" patternUnits="userSpaceOnUse" width="20" height="14">
      <path d="M0,12 H4 V4 H12 V12 H8 V8 H16 V12 H20" fill="none" stroke="#e8cd86" stroke-width="1.5" stroke-linecap="square"></path>
    </pattern>
    <pattern id="fretV" patternUnits="userSpaceOnUse" width="14" height="20">
      <path d="M12,0 V4 H4 V12 H12 V8 H8 V16 H12 V20" fill="none" stroke="#e8cd86" stroke-width="1.5" stroke-linecap="square"></path>
    </pattern>
    <path id="ruyi" d="M0,-6 C-5,-12 -14,-10 -14,-3.5 C-14,1 -8,2 -4,-0.6 C-2,-2 -1,-3.4 0,-5 C1,-3.4 2,-2 4,-0.6 C8,2 14,1 14,-3.5 C14,-10 5,-12 0,-6 Z"></path>
  </defs>

  <rect x="0" y="0" width="360" height="504" rx="22" fill="url(#cardGrad)"></rect>
  <rect x="0" y="0" width="360" height="504" rx="22" fill="url(#diaper)"></rect>

  
  <g opacity="0.085" fill="#e8cd86">
    <g transform="translate(80,150)">
      <rect x="-3" y="0" width="6" height="210" rx="3"></rect>
      <rect x="-4" y="58" width="8" height="3" rx="1.5"></rect><rect x="-4" y="132" width="8" height="3" rx="1.5"></rect>
      <path d="M0,18 C16,10 30,16 40,30 C26,28 12,28 0,30 Z"></path>
      <path d="M0,86 C-16,78 -30,84 -40,98 C-26,96 -12,96 0,98 Z"></path>
    </g>
    <g transform="translate(280,150)">
      <rect x="-3" y="0" width="6" height="210" rx="3"></rect>
      <rect x="-4" y="58" width="8" height="3" rx="1.5"></rect><rect x="-4" y="132" width="8" height="3" rx="1.5"></rect>
      <path d="M0,18 C-16,10 -30,16 -40,30 C-26,28 -12,28 0,30 Z"></path>
      <path d="M0,86 C16,78 30,84 40,98 C26,96 12,96 0,98 Z"></path>
    </g>
  </g>

  <rect x="0" y="0" width="360" height="504" rx="22" fill="url(#vign)"></rect>

  <rect x="12" y="12" width="336" height="480" rx="16" fill="none" stroke="url(#goldGrad)" stroke-width="2.5"></rect>
  <rect x="16.5" y="16.5" width="327" height="471" rx="13" fill="none" stroke="#e8cd86" stroke-width="0.8" opacity="0.5"></rect>

  <rect x="22" y="20" width="316" height="14" fill="url(#fretH)"></rect>
  <rect x="22" y="470" width="316" height="14" fill="url(#fretH)"></rect>
  <rect x="20" y="22" width="14" height="460" fill="url(#fretV)"></rect>
  <rect x="326" y="22" width="14" height="460" fill="url(#fretV)"></rect>
  <g stroke="#e8cd86" fill="none">
    <g transform="translate(20,20)"><rect x="0" y="0" width="14" height="14" stroke-width="1.6"></rect><rect x="4.5" y="4.5" width="5" height="5" fill="#e8cd86" stroke="none"></rect></g>
    <g transform="translate(326,20)"><rect x="0" y="0" width="14" height="14" stroke-width="1.6"></rect><rect x="4.5" y="4.5" width="5" height="5" fill="#e8cd86" stroke="none"></rect></g>
    <g transform="translate(20,470)"><rect x="0" y="0" width="14" height="14" stroke-width="1.6"></rect><rect x="4.5" y="4.5" width="5" height="5" fill="#e8cd86" stroke="none"></rect></g>
    <g transform="translate(326,470)"><rect x="0" y="0" width="14" height="14" stroke-width="1.6"></rect><rect x="4.5" y="4.5" width="5" height="5" fill="#e8cd86" stroke="none"></rect></g>
  </g>

  <rect x="42" y="42" width="276" height="420" rx="12" fill="none" stroke="url(#goldGrad)" stroke-width="1.8"></rect>
  <rect x="46" y="46" width="268" height="412" rx="9" fill="none" stroke="#e8cd86" stroke-width="0.7" opacity="0.45"></rect>

  <g fill="#e8cd86" opacity="0.8">
    <use href="#ruyi" transform="translate(66,66) rotate(45) scale(0.92)"></use>
    <use href="#ruyi" transform="translate(294,66) rotate(135) scale(0.92)"></use>
    <use href="#ruyi" transform="translate(66,438) rotate(-45) scale(0.92)"></use>
    <use href="#ruyi" transform="translate(294,438) rotate(225) scale(0.92)"></use>
  </g>

  <g transform="translate(180,94)">
    <line x1="-72" y1="0" x2="-20" y2="0" stroke="#e8cd86" stroke-width="1.1" opacity="0.7"></line>
    <line x1="20" y1="0" x2="72" y2="0" stroke="#e8cd86" stroke-width="1.1" opacity="0.7"></line>
    <circle cx="-72" cy="0" r="2.4" fill="#e8cd86"></circle>
    <circle cx="72" cy="0" r="2.4" fill="#e8cd86"></circle>
    <use href="#ruyi" transform="scale(1.05)" fill="#e8cd86" opacity="0.92"></use>
  </g>

  <g transform="translate(180,234)">
    <circle r="80" fill="url(#medalGrad)" stroke="url(#goldGrad)" stroke-width="3"></circle>
    <circle r="80" fill="none" stroke="#451010" stroke-width="0.6" opacity="0.6"></circle>
    <circle r="68" fill="none" stroke="#e8cd86" stroke-width="2" stroke-dasharray="1.4 6.6" opacity="0.9"></circle>
    <circle r="56" fill="none" stroke="#e8cd86" stroke-width="1" opacity="0.65"></circle>
    <circle cx="0" cy="-80" r="4.5" fill="url(#goldGrad)"></circle>
    <circle r="46" fill="none" stroke="#e8cd86" stroke-width="0.8" stroke-dasharray="1.2 5" opacity="0.42"></circle>
    <circle r="30" fill="none" stroke="#e8cd86" stroke-width="0.7" opacity="0.3"></circle>
    <g stroke="#e8cd86" stroke-width="0.9" opacity="0.5">
      <line x1="0" y1="0" x2="-26" y2="-18"></line><line x1="0" y1="0" x2="24" y2="-22"></line><line x1="0" y1="0" x2="34" y2="8"></line>
      <line x1="0" y1="0" x2="12" y2="30"></line><line x1="0" y1="0" x2="-22" y2="26"></line><line x1="0" y1="0" x2="-36" y2="4"></line>
      <line x1="-26" y1="-18" x2="24" y2="-22"></line><line x1="24" y1="-22" x2="34" y2="8"></line><line x1="34" y1="8" x2="12" y2="30"></line>
      <line x1="12" y1="30" x2="-22" y2="26"></line><line x1="-22" y1="26" x2="-36" y2="4"></line><line x1="-36" y1="4" x2="-26" y2="-18"></line>
    </g>
    <g fill="#e8cd86">
      <circle cx="-26" cy="-18" r="3"></circle><circle cx="24" cy="-22" r="2.8"></circle><circle cx="34" cy="8" r="2.4"></circle>
      <circle cx="12" cy="30" r="2.8"></circle><circle cx="-22" cy="26" r="2.6"></circle><circle cx="-36" cy="4" r="2.4"></circle>
    </g>
    <circle r="22" fill="url(#nodeGlow)"></circle>
    <circle r="6.5" fill="#f6e3a8"></circle>
    <circle r="6.5" fill="none" stroke="#e8cd86" stroke-width="1"></circle>
  </g>

  <g transform="translate(180,398)">
    <line x1="-66" y1="0" x2="-18" y2="0" stroke="#e8cd86" stroke-width="1.1" opacity="0.7"></line>
    <line x1="18" y1="0" x2="66" y2="0" stroke="#e8cd86" stroke-width="1.1" opacity="0.7"></line>
    <circle cx="-66" cy="0" r="2.4" fill="#e8cd86"></circle>
    <circle cx="66" cy="0" r="2.4" fill="#e8cd86"></circle>
    <use href="#ruyi" transform="rotate(180) scale(1.05)" fill="#e8cd86" opacity="0.92"></use>
  </g>
</svg>